<mxfile host="app.diagrams.net" agent="Mozilla/5.0 (Windows NT 10.0; Win64; x64) AppleWebKit/537.36 (KHTML, like Gecko) Chrome/131.0.0.0 Safari/537.36" version="25.0.3">
  <diagram name="ER-Diagram" id="FdmUh9JzQBZttXgt3nAz">
    <mxGraphModel dx="1375" dy="1361" grid="1" gridSize="10" guides="1" tooltips="1" connect="1" arrows="1" fold="1" page="1" pageScale="1" pageWidth="850" pageHeight="1100" math="0" shadow="0">
      <root>
        <mxCell id="0" />
        <mxCell id="1" parent="0" />
        <mxCell id="HWzIpppgRrNZJ8F4URVD-116" value="" style="rounded=0;whiteSpace=wrap;html=1;dashed=1;fillColor=none;" vertex="1" parent="1">
          <mxGeometry x="850" y="128" width="610" height="100" as="geometry" />
        </mxCell>
        <mxCell id="HWzIpppgRrNZJ8F4URVD-8" style="edgeStyle=orthogonalEdgeStyle;rounded=0;orthogonalLoop=1;jettySize=auto;html=1;exitX=0.5;exitY=1;exitDx=0;exitDy=0;entryX=0.5;entryY=0;entryDx=0;entryDy=0;endArrow=none;endFill=0;" edge="1" parent="1" source="HWzIpppgRrNZJ8F4URVD-2" target="HWzIpppgRrNZJ8F4URVD-6">
          <mxGeometry relative="1" as="geometry" />
        </mxCell>
        <mxCell id="HWzIpppgRrNZJ8F4URVD-124" style="edgeStyle=orthogonalEdgeStyle;rounded=0;orthogonalLoop=1;jettySize=auto;html=1;exitX=1;exitY=0.5;exitDx=0;exitDy=0;entryX=0;entryY=0.5;entryDx=0;entryDy=0;" edge="1" parent="1" source="HWzIpppgRrNZJ8F4URVD-2" target="HWzIpppgRrNZJ8F4URVD-84">
          <mxGeometry relative="1" as="geometry" />
        </mxCell>
        <mxCell id="HWzIpppgRrNZJ8F4URVD-2" value="Producto" style="whiteSpace=wrap;html=1;align=center;" vertex="1" parent="1">
          <mxGeometry x="350" y="160" width="100" height="40" as="geometry" />
        </mxCell>
        <mxCell id="HWzIpppgRrNZJ8F4URVD-3" value="RanpuLamp" style="whiteSpace=wrap;html=1;align=center;" vertex="1" parent="1">
          <mxGeometry x="180" y="400" width="100" height="40" as="geometry" />
        </mxCell>
        <mxCell id="HWzIpppgRrNZJ8F4URVD-4" value="Producto de IA" style="whiteSpace=wrap;html=1;align=center;" vertex="1" parent="1">
          <mxGeometry x="350" y="400" width="100" height="40" as="geometry" />
        </mxCell>
        <mxCell id="HWzIpppgRrNZJ8F4URVD-5" value="Producto CatÃ¡logo" style="whiteSpace=wrap;html=1;align=center;" vertex="1" parent="1">
          <mxGeometry x="520" y="400" width="100" height="40" as="geometry" />
        </mxCell>
        <mxCell id="HWzIpppgRrNZJ8F4URVD-9" style="edgeStyle=orthogonalEdgeStyle;rounded=0;orthogonalLoop=1;jettySize=auto;html=1;exitX=0.5;exitY=1;exitDx=0;exitDy=0;entryX=0;entryY=0.5;entryDx=0;entryDy=0;endArrow=none;endFill=0;" edge="1" parent="1" source="HWzIpppgRrNZJ8F4URVD-6" target="HWzIpppgRrNZJ8F4URVD-7">
          <mxGeometry relative="1" as="geometry" />
        </mxCell>
        <mxCell id="HWzIpppgRrNZJ8F4URVD-6" value="" style="ellipse;whiteSpace=wrap;html=1;aspect=fixed;" vertex="1" parent="1">
          <mxGeometry x="390" y="220" width="20" height="20" as="geometry" />
        </mxCell>
        <mxCell id="HWzIpppgRrNZJ8F4URVD-13" style="rounded=0;orthogonalLoop=1;jettySize=auto;html=1;exitX=0.5;exitY=0;exitDx=0;exitDy=0;entryX=0.5;entryY=0;entryDx=0;entryDy=0;endArrow=none;endFill=0;" edge="1" parent="1" source="HWzIpppgRrNZJ8F4URVD-7" target="HWzIpppgRrNZJ8F4URVD-5">
          <mxGeometry relative="1" as="geometry" />
        </mxCell>
        <mxCell id="HWzIpppgRrNZJ8F4URVD-14" style="edgeStyle=orthogonalEdgeStyle;rounded=0;orthogonalLoop=1;jettySize=auto;html=1;exitX=1;exitY=0.5;exitDx=0;exitDy=0;entryX=0.5;entryY=0;entryDx=0;entryDy=0;endArrow=none;endFill=0;" edge="1" parent="1" source="HWzIpppgRrNZJ8F4URVD-7" target="HWzIpppgRrNZJ8F4URVD-4">
          <mxGeometry relative="1" as="geometry" />
        </mxCell>
        <mxCell id="HWzIpppgRrNZJ8F4URVD-15" style="rounded=0;orthogonalLoop=1;jettySize=auto;html=1;exitX=0.5;exitY=1;exitDx=0;exitDy=0;endArrow=none;endFill=0;" edge="1" parent="1" source="HWzIpppgRrNZJ8F4URVD-7" target="HWzIpppgRrNZJ8F4URVD-3">
          <mxGeometry relative="1" as="geometry" />
        </mxCell>
        <mxCell id="HWzIpppgRrNZJ8F4URVD-7" value="" style="triangle;whiteSpace=wrap;html=1;rotation=90;" vertex="1" parent="1">
          <mxGeometry x="380" y="260" width="40" height="50" as="geometry" />
        </mxCell>
        <mxCell id="HWzIpppgRrNZJ8F4URVD-11" value="" style="verticalLabelPosition=bottom;verticalAlign=top;html=1;shape=mxgraph.basic.arc;startAngle=0.3152737935443114;endAngle=0.688323670744285;" vertex="1" parent="1">
          <mxGeometry x="350" y="220" width="100" height="100" as="geometry" />
        </mxCell>
        <mxCell id="HWzIpppgRrNZJ8F4URVD-49" style="edgeStyle=orthogonalEdgeStyle;rounded=0;orthogonalLoop=1;jettySize=auto;html=1;exitX=1;exitY=0.5;exitDx=0;exitDy=0;entryX=0;entryY=0.5;entryDx=0;entryDy=0;" edge="1" parent="1" source="HWzIpppgRrNZJ8F4URVD-16" target="HWzIpppgRrNZJ8F4URVD-48">
          <mxGeometry relative="1" as="geometry" />
        </mxCell>
        <mxCell id="HWzIpppgRrNZJ8F4URVD-16" value="Filamento" style="whiteSpace=wrap;html=1;align=center;" vertex="1" parent="1">
          <mxGeometry x="1790" y="158" width="100" height="40" as="geometry" />
        </mxCell>
        <mxCell id="HWzIpppgRrNZJ8F4URVD-120" style="edgeStyle=orthogonalEdgeStyle;rounded=0;orthogonalLoop=1;jettySize=auto;html=1;exitX=0.25;exitY=1;exitDx=0;exitDy=0;entryX=0;entryY=0.5;entryDx=0;entryDy=0;" edge="1" parent="1" source="HWzIpppgRrNZJ8F4URVD-17" target="HWzIpppgRrNZJ8F4URVD-81">
          <mxGeometry relative="1" as="geometry" />
        </mxCell>
        <mxCell id="HWzIpppgRrNZJ8F4URVD-131" style="edgeStyle=orthogonalEdgeStyle;rounded=0;orthogonalLoop=1;jettySize=auto;html=1;exitX=1;exitY=0.5;exitDx=0;exitDy=0;entryX=0;entryY=0.5;entryDx=0;entryDy=0;" edge="1" parent="1" source="HWzIpppgRrNZJ8F4URVD-17" target="HWzIpppgRrNZJ8F4URVD-63">
          <mxGeometry relative="1" as="geometry" />
        </mxCell>
        <mxCell id="HWzIpppgRrNZJ8F4URVD-17" value="Impresora" style="whiteSpace=wrap;html=1;align=center;" vertex="1" parent="1">
          <mxGeometry x="1310" y="158" width="100" height="40" as="geometry" />
        </mxCell>
        <mxCell id="HWzIpppgRrNZJ8F4URVD-103" style="edgeStyle=orthogonalEdgeStyle;rounded=0;orthogonalLoop=1;jettySize=auto;html=1;exitX=0.5;exitY=1;exitDx=0;exitDy=0;entryX=0.5;entryY=0;entryDx=0;entryDy=0;" edge="1" parent="1" source="HWzIpppgRrNZJ8F4URVD-18" target="HWzIpppgRrNZJ8F4URVD-102">
          <mxGeometry relative="1" as="geometry" />
        </mxCell>
        <mxCell id="HWzIpppgRrNZJ8F4URVD-18" value="Usuario" style="whiteSpace=wrap;html=1;align=center;" vertex="1" parent="1">
          <mxGeometry x="-230" y="-81" width="100" height="40" as="geometry" />
        </mxCell>
        <mxCell id="HWzIpppgRrNZJ8F4URVD-105" style="edgeStyle=orthogonalEdgeStyle;rounded=0;orthogonalLoop=1;jettySize=auto;html=1;exitX=1;exitY=0.5;exitDx=0;exitDy=0;entryX=0;entryY=0.5;entryDx=0;entryDy=0;" edge="1" parent="1" source="HWzIpppgRrNZJ8F4URVD-19" target="HWzIpppgRrNZJ8F4URVD-24">
          <mxGeometry relative="1" as="geometry" />
        </mxCell>
        <mxCell id="HWzIpppgRrNZJ8F4URVD-141" style="edgeStyle=orthogonalEdgeStyle;rounded=0;orthogonalLoop=1;jettySize=auto;html=1;exitX=0.5;exitY=1;exitDx=0;exitDy=0;entryX=0;entryY=0.5;entryDx=0;entryDy=0;endArrow=none;endFill=0;" edge="1" parent="1" source="HWzIpppgRrNZJ8F4URVD-19" target="HWzIpppgRrNZJ8F4URVD-139">
          <mxGeometry relative="1" as="geometry" />
        </mxCell>
        <mxCell id="HWzIpppgRrNZJ8F4URVD-142" style="edgeStyle=orthogonalEdgeStyle;rounded=0;orthogonalLoop=1;jettySize=auto;html=1;exitX=0.5;exitY=1;exitDx=0;exitDy=0;entryX=0;entryY=0.5;entryDx=0;entryDy=0;endArrow=none;endFill=0;" edge="1" parent="1" source="HWzIpppgRrNZJ8F4URVD-19" target="HWzIpppgRrNZJ8F4URVD-137">
          <mxGeometry relative="1" as="geometry" />
        </mxCell>
        <mxCell id="HWzIpppgRrNZJ8F4URVD-143" style="edgeStyle=orthogonalEdgeStyle;rounded=0;orthogonalLoop=1;jettySize=auto;html=1;exitX=0.5;exitY=1;exitDx=0;exitDy=0;entryX=0;entryY=0.5;entryDx=0;entryDy=0;endArrow=none;endFill=0;" edge="1" parent="1" source="HWzIpppgRrNZJ8F4URVD-19" target="HWzIpppgRrNZJ8F4URVD-136">
          <mxGeometry relative="1" as="geometry" />
        </mxCell>
        <mxCell id="HWzIpppgRrNZJ8F4URVD-144" style="edgeStyle=orthogonalEdgeStyle;rounded=0;orthogonalLoop=1;jettySize=auto;html=1;exitX=0.5;exitY=1;exitDx=0;exitDy=0;entryX=0;entryY=0.5;entryDx=0;entryDy=0;endArrow=none;endFill=0;" edge="1" parent="1" source="HWzIpppgRrNZJ8F4URVD-19" target="HWzIpppgRrNZJ8F4URVD-135">
          <mxGeometry relative="1" as="geometry" />
        </mxCell>
        <mxCell id="HWzIpppgRrNZJ8F4URVD-145" style="edgeStyle=orthogonalEdgeStyle;rounded=0;orthogonalLoop=1;jettySize=auto;html=1;exitX=0.5;exitY=1;exitDx=0;exitDy=0;entryX=0;entryY=0.5;entryDx=0;entryDy=0;endArrow=none;endFill=0;" edge="1" parent="1" source="HWzIpppgRrNZJ8F4URVD-19" target="HWzIpppgRrNZJ8F4URVD-133">
          <mxGeometry relative="1" as="geometry" />
        </mxCell>
        <mxCell id="HWzIpppgRrNZJ8F4URVD-146" style="edgeStyle=orthogonalEdgeStyle;rounded=0;orthogonalLoop=1;jettySize=auto;html=1;exitX=0.5;exitY=1;exitDx=0;exitDy=0;entryX=0;entryY=0.5;entryDx=0;entryDy=0;endArrow=none;endFill=0;" edge="1" parent="1" source="HWzIpppgRrNZJ8F4URVD-19" target="HWzIpppgRrNZJ8F4URVD-101">
          <mxGeometry relative="1" as="geometry" />
        </mxCell>
        <mxCell id="HWzIpppgRrNZJ8F4URVD-147" style="edgeStyle=orthogonalEdgeStyle;rounded=0;orthogonalLoop=1;jettySize=auto;html=1;exitX=0.5;exitY=1;exitDx=0;exitDy=0;entryX=0;entryY=0.5;entryDx=0;entryDy=0;endArrow=none;endFill=0;" edge="1" parent="1" source="HWzIpppgRrNZJ8F4URVD-19" target="HWzIpppgRrNZJ8F4URVD-140">
          <mxGeometry relative="1" as="geometry" />
        </mxCell>
        <mxCell id="HWzIpppgRrNZJ8F4URVD-148" style="edgeStyle=orthogonalEdgeStyle;rounded=0;orthogonalLoop=1;jettySize=auto;html=1;exitX=0.5;exitY=1;exitDx=0;exitDy=0;entryX=0;entryY=0.5;entryDx=0;entryDy=0;endArrow=none;endFill=0;" edge="1" parent="1" source="HWzIpppgRrNZJ8F4URVD-19" target="HWzIpppgRrNZJ8F4URVD-138">
          <mxGeometry relative="1" as="geometry" />
        </mxCell>
        <mxCell id="HWzIpppgRrNZJ8F4URVD-149" style="edgeStyle=orthogonalEdgeStyle;rounded=0;orthogonalLoop=1;jettySize=auto;html=1;exitX=0.5;exitY=1;exitDx=0;exitDy=0;entryX=0;entryY=0.5;entryDx=0;entryDy=0;endArrow=none;endFill=0;" edge="1" parent="1" source="HWzIpppgRrNZJ8F4URVD-19" target="HWzIpppgRrNZJ8F4URVD-100">
          <mxGeometry relative="1" as="geometry" />
        </mxCell>
        <mxCell id="HWzIpppgRrNZJ8F4URVD-150" style="edgeStyle=orthogonalEdgeStyle;rounded=0;orthogonalLoop=1;jettySize=auto;html=1;exitX=0.5;exitY=1;exitDx=0;exitDy=0;entryX=0;entryY=0.5;entryDx=0;entryDy=0;endArrow=none;endFill=0;" edge="1" parent="1" source="HWzIpppgRrNZJ8F4URVD-19" target="HWzIpppgRrNZJ8F4URVD-99">
          <mxGeometry relative="1" as="geometry" />
        </mxCell>
        <mxCell id="HWzIpppgRrNZJ8F4URVD-19" value="Pedido" style="whiteSpace=wrap;html=1;align=center;fillColor=#dae8fc;strokeColor=#6c8ebf;" vertex="1" parent="1">
          <mxGeometry x="-230" y="160" width="100" height="40" as="geometry" />
        </mxCell>
        <mxCell id="HWzIpppgRrNZJ8F4URVD-26" style="edgeStyle=orthogonalEdgeStyle;rounded=0;orthogonalLoop=1;jettySize=auto;html=1;exitX=1;exitY=0.5;exitDx=0;exitDy=0;entryX=0;entryY=0.5;entryDx=0;entryDy=0;" edge="1" parent="1" source="HWzIpppgRrNZJ8F4URVD-24" target="HWzIpppgRrNZJ8F4URVD-2">
          <mxGeometry relative="1" as="geometry" />
        </mxCell>
        <mxCell id="HWzIpppgRrNZJ8F4URVD-24" value="incluye" style="shape=rhombus;perimeter=rhombusPerimeter;whiteSpace=wrap;html=1;align=center;" vertex="1" parent="1">
          <mxGeometry x="60" y="150" width="120" height="60" as="geometry" />
        </mxCell>
        <mxCell id="HWzIpppgRrNZJ8F4URVD-90" style="edgeStyle=orthogonalEdgeStyle;rounded=0;orthogonalLoop=1;jettySize=auto;html=1;exitX=1;exitY=0.5;exitDx=0;exitDy=0;entryX=0;entryY=0.5;entryDx=0;entryDy=0;" edge="1" parent="1" source="HWzIpppgRrNZJ8F4URVD-28" target="HWzIpppgRrNZJ8F4URVD-75">
          <mxGeometry relative="1" as="geometry" />
        </mxCell>
        <mxCell id="HWzIpppgRrNZJ8F4URVD-28" value="Modelo 3D" style="whiteSpace=wrap;html=1;align=center;" vertex="1" parent="1">
          <mxGeometry x="900" y="160" width="100" height="40" as="geometry" />
        </mxCell>
        <mxCell id="HWzIpppgRrNZJ8F4URVD-29" value="precio" style="ellipse;whiteSpace=wrap;html=1;align=center;" vertex="1" parent="1">
          <mxGeometry x="350" y="-222" width="100" height="40" as="geometry" />
        </mxCell>
        <mxCell id="HWzIpppgRrNZJ8F4URVD-30" value="descripciÃ³n" style="ellipse;whiteSpace=wrap;html=1;align=center;" vertex="1" parent="1">
          <mxGeometry x="350" y="-172" width="100" height="40" as="geometry" />
        </mxCell>
        <mxCell id="HWzIpppgRrNZJ8F4URVD-31" value="nombre" style="ellipse;whiteSpace=wrap;html=1;align=center;" vertex="1" parent="1">
          <mxGeometry x="350" y="-122" width="100" height="40" as="geometry" />
        </mxCell>
        <mxCell id="HWzIpppgRrNZJ8F4URVD-32" value="alto" style="ellipse;whiteSpace=wrap;html=1;align=center;" vertex="1" parent="1">
          <mxGeometry x="910" y="-151" width="100" height="40" as="geometry" />
        </mxCell>
        <mxCell id="HWzIpppgRrNZJ8F4URVD-33" value="ancho" style="ellipse;whiteSpace=wrap;html=1;align=center;" vertex="1" parent="1">
          <mxGeometry x="910" y="-101" width="100" height="40" as="geometry" />
        </mxCell>
        <mxCell id="HWzIpppgRrNZJ8F4URVD-34" value="largo" style="ellipse;whiteSpace=wrap;html=1;align=center;" vertex="1" parent="1">
          <mxGeometry x="910" y="-51" width="100" height="40" as="geometry" />
        </mxCell>
        <mxCell id="HWzIpppgRrNZJ8F4URVD-35" value="peso" style="ellipse;whiteSpace=wrap;html=1;align=center;" vertex="1" parent="1">
          <mxGeometry x="910" y="-1" width="100" height="40" as="geometry" />
        </mxCell>
        <mxCell id="HWzIpppgRrNZJ8F4URVD-36" value="cantidad&amp;nbsp; de filamento estimado" style="ellipse;whiteSpace=wrap;html=1;align=center;" vertex="1" parent="1">
          <mxGeometry x="910" y="49" width="100" height="40" as="geometry" />
        </mxCell>
        <mxCell id="HWzIpppgRrNZJ8F4URVD-38" value="color" style="ellipse;whiteSpace=wrap;html=1;align=center;" vertex="1" parent="1">
          <mxGeometry x="1890" y="-272" width="100" height="40" as="geometry" />
        </mxCell>
        <mxCell id="HWzIpppgRrNZJ8F4URVD-127" style="edgeStyle=orthogonalEdgeStyle;rounded=0;orthogonalLoop=1;jettySize=auto;html=1;exitX=1;exitY=0.5;exitDx=0;exitDy=0;entryX=0.5;entryY=0;entryDx=0;entryDy=0;" edge="1" parent="1" source="HWzIpppgRrNZJ8F4URVD-39" target="HWzIpppgRrNZJ8F4URVD-16">
          <mxGeometry relative="1" as="geometry" />
        </mxCell>
        <mxCell id="HWzIpppgRrNZJ8F4URVD-128" style="edgeStyle=orthogonalEdgeStyle;rounded=0;orthogonalLoop=1;jettySize=auto;html=1;exitX=0;exitY=0.5;exitDx=0;exitDy=0;entryX=0.5;entryY=0;entryDx=0;entryDy=0;" edge="1" parent="1" source="HWzIpppgRrNZJ8F4URVD-39" target="HWzIpppgRrNZJ8F4URVD-116">
          <mxGeometry relative="1" as="geometry" />
        </mxCell>
        <mxCell id="HWzIpppgRrNZJ8F4URVD-39" value="utiliza" style="shape=rhombus;perimeter=rhombusPerimeter;whiteSpace=wrap;html=1;align=center;" vertex="1" parent="1">
          <mxGeometry x="1430" y="-61" width="120" height="60" as="geometry" />
        </mxCell>
        <mxCell id="HWzIpppgRrNZJ8F4URVD-42" value="peso inicial" style="ellipse;whiteSpace=wrap;html=1;align=center;" vertex="1" parent="1">
          <mxGeometry x="1890" y="-222" width="100" height="40" as="geometry" />
        </mxCell>
        <mxCell id="HWzIpppgRrNZJ8F4URVD-43" value="longitud inicial" style="ellipse;whiteSpace=wrap;html=1;align=center;" vertex="1" parent="1">
          <mxGeometry x="1890" y="-122" width="100" height="40" as="geometry" />
        </mxCell>
        <mxCell id="HWzIpppgRrNZJ8F4URVD-45" value="peso actual" style="ellipse;whiteSpace=wrap;html=1;align=center;" vertex="1" parent="1">
          <mxGeometry x="1890" y="-172" width="100" height="40" as="geometry" />
        </mxCell>
        <mxCell id="HWzIpppgRrNZJ8F4URVD-46" value="longitud actual" style="ellipse;whiteSpace=wrap;html=1;align=center;" vertex="1" parent="1">
          <mxGeometry x="1890" y="-72" width="100" height="40" as="geometry" />
        </mxCell>
        <mxCell id="HWzIpppgRrNZJ8F4URVD-47" value="Tipo de filamento" style="whiteSpace=wrap;html=1;align=center;" vertex="1" parent="1">
          <mxGeometry x="2220" y="159" width="100" height="40" as="geometry" />
        </mxCell>
        <mxCell id="HWzIpppgRrNZJ8F4URVD-50" style="edgeStyle=orthogonalEdgeStyle;rounded=0;orthogonalLoop=1;jettySize=auto;html=1;exitX=1;exitY=0.5;exitDx=0;exitDy=0;entryX=0;entryY=0.5;entryDx=0;entryDy=0;" edge="1" parent="1" source="HWzIpppgRrNZJ8F4URVD-48" target="HWzIpppgRrNZJ8F4URVD-47">
          <mxGeometry relative="1" as="geometry" />
        </mxCell>
        <mxCell id="HWzIpppgRrNZJ8F4URVD-48" value="pertenece" style="shape=rhombus;perimeter=rhombusPerimeter;whiteSpace=wrap;html=1;align=center;" vertex="1" parent="1">
          <mxGeometry x="2000" y="149" width="120" height="60" as="geometry" />
        </mxCell>
        <mxCell id="HWzIpppgRrNZJ8F4URVD-51" value="descripciÃ³n" style="ellipse;whiteSpace=wrap;html=1;align=center;" vertex="1" parent="1">
          <mxGeometry x="2360" y="-1" width="100" height="40" as="geometry" />
        </mxCell>
        <mxCell id="HWzIpppgRrNZJ8F4URVD-52" value="nombre" style="ellipse;whiteSpace=wrap;html=1;align=center;" vertex="1" parent="1">
          <mxGeometry x="2360" y="-51" width="100" height="40" as="geometry" />
        </mxCell>
        <mxCell id="HWzIpppgRrNZJ8F4URVD-53" value="diÃ¡metro" style="ellipse;whiteSpace=wrap;html=1;align=center;" vertex="1" parent="1">
          <mxGeometry x="2360" y="49" width="100" height="40" as="geometry" />
        </mxCell>
        <mxCell id="HWzIpppgRrNZJ8F4URVD-54" value="temperatura de extrusiÃ³n" style="ellipse;whiteSpace=wrap;html=1;align=center;" vertex="1" parent="1">
          <mxGeometry x="2360" y="99" width="100" height="40" as="geometry" />
        </mxCell>
        <mxCell id="HWzIpppgRrNZJ8F4URVD-55" value="temperatura de cama" style="ellipse;whiteSpace=wrap;html=1;align=center;" vertex="1" parent="1">
          <mxGeometry x="2360" y="159" width="100" height="40" as="geometry" />
        </mxCell>
        <mxCell id="HWzIpppgRrNZJ8F4URVD-56" value="resistencia" style="ellipse;whiteSpace=wrap;html=1;align=center;" vertex="1" parent="1">
          <mxGeometry x="2360" y="209" width="100" height="40" as="geometry" />
        </mxCell>
        <mxCell id="HWzIpppgRrNZJ8F4URVD-57" value="flexibilidad" style="ellipse;whiteSpace=wrap;html=1;align=center;" vertex="1" parent="1">
          <mxGeometry x="2360" y="259" width="100" height="40" as="geometry" />
        </mxCell>
        <mxCell id="HWzIpppgRrNZJ8F4URVD-58" value="material base" style="ellipse;whiteSpace=wrap;html=1;align=center;" vertex="1" parent="1">
          <mxGeometry x="2360" y="309" width="100" height="40" as="geometry" />
        </mxCell>
        <mxCell id="HWzIpppgRrNZJ8F4URVD-59" value="precio por kg promedio" style="ellipse;whiteSpace=wrap;html=1;align=center;" vertex="1" parent="1">
          <mxGeometry x="2360" y="369" width="100" height="40" as="geometry" />
        </mxCell>
        <mxCell id="HWzIpppgRrNZJ8F4URVD-60" value="marca" style="ellipse;whiteSpace=wrap;html=1;align=center;" vertex="1" parent="1">
          <mxGeometry x="1890" y="-22" width="100" height="40" as="geometry" />
        </mxCell>
        <mxCell id="HWzIpppgRrNZJ8F4URVD-61" value="precio de compra" style="ellipse;whiteSpace=wrap;html=1;align=center;" vertex="1" parent="1">
          <mxGeometry x="1890" y="28" width="100" height="40" as="geometry" />
        </mxCell>
        <mxCell id="HWzIpppgRrNZJ8F4URVD-62" value="fecha de compra" style="ellipse;whiteSpace=wrap;html=1;align=center;" vertex="1" parent="1">
          <mxGeometry x="1890" y="78" width="100" height="40" as="geometry" />
        </mxCell>
        <mxCell id="HWzIpppgRrNZJ8F4URVD-132" style="edgeStyle=orthogonalEdgeStyle;rounded=0;orthogonalLoop=1;jettySize=auto;html=1;exitX=1;exitY=0.5;exitDx=0;exitDy=0;entryX=0;entryY=0.5;entryDx=0;entryDy=0;" edge="1" parent="1" source="HWzIpppgRrNZJ8F4URVD-63" target="HWzIpppgRrNZJ8F4URVD-16">
          <mxGeometry relative="1" as="geometry" />
        </mxCell>
        <mxCell id="HWzIpppgRrNZJ8F4URVD-63" value="asignada" style="shape=rhombus;perimeter=rhombusPerimeter;whiteSpace=wrap;html=1;align=center;" vertex="1" parent="1">
          <mxGeometry x="1550" y="150" width="120" height="60" as="geometry" />
        </mxCell>
        <mxCell id="HWzIpppgRrNZJ8F4URVD-66" value="id filamento" style="ellipse;whiteSpace=wrap;html=1;align=center;" vertex="1" parent="1">
          <mxGeometry x="1890" y="-322" width="100" height="40" as="geometry" />
        </mxCell>
        <mxCell id="HWzIpppgRrNZJ8F4URVD-67" value="id tipo filamento" style="ellipse;whiteSpace=wrap;html=1;align=center;" vertex="1" parent="1">
          <mxGeometry x="2360" y="-111" width="100" height="40" as="geometry" />
        </mxCell>
        <mxCell id="HWzIpppgRrNZJ8F4URVD-68" value="id impresora" style="ellipse;whiteSpace=wrap;html=1;align=center;" vertex="1" parent="1">
          <mxGeometry x="2740" y="-721" width="100" height="40" as="geometry" />
        </mxCell>
        <mxCell id="HWzIpppgRrNZJ8F4URVD-69" value="marca" style="ellipse;whiteSpace=wrap;html=1;align=center;" vertex="1" parent="1">
          <mxGeometry x="2740" y="-671" width="100" height="40" as="geometry" />
        </mxCell>
        <mxCell id="HWzIpppgRrNZJ8F4URVD-70" value="estado" style="ellipse;whiteSpace=wrap;html=1;align=center;" vertex="1" parent="1">
          <mxGeometry x="2740" y="-621" width="100" height="40" as="geometry" />
        </mxCell>
        <mxCell id="HWzIpppgRrNZJ8F4URVD-71" value="ancho de impresiÃ³n" style="ellipse;whiteSpace=wrap;html=1;align=center;" vertex="1" parent="1">
          <mxGeometry x="2740" y="-571" width="100" height="40" as="geometry" />
        </mxCell>
        <mxCell id="HWzIpppgRrNZJ8F4URVD-72" value="largo de impresiÃ³n" style="ellipse;whiteSpace=wrap;html=1;align=center;" vertex="1" parent="1">
          <mxGeometry x="2740" y="-521" width="100" height="40" as="geometry" />
        </mxCell>
        <mxCell id="HWzIpppgRrNZJ8F4URVD-73" value="altura de impresiÃ³n" style="ellipse;whiteSpace=wrap;html=1;align=center;" vertex="1" parent="1">
          <mxGeometry x="2740" y="-471" width="100" height="40" as="geometry" />
        </mxCell>
        <mxCell id="HWzIpppgRrNZJ8F4URVD-114" style="edgeStyle=orthogonalEdgeStyle;rounded=0;orthogonalLoop=1;jettySize=auto;html=1;exitX=1;exitY=0.5;exitDx=0;exitDy=0;entryX=0;entryY=0.5;entryDx=0;entryDy=0;" edge="1" parent="1" source="HWzIpppgRrNZJ8F4URVD-75" target="HWzIpppgRrNZJ8F4URVD-17">
          <mxGeometry relative="1" as="geometry" />
        </mxCell>
        <mxCell id="HWzIpppgRrNZJ8F4URVD-75" value="se imprime" style="shape=rhombus;perimeter=rhombusPerimeter;whiteSpace=wrap;html=1;align=center;" vertex="1" parent="1">
          <mxGeometry x="1100" y="148" width="120" height="60" as="geometry" />
        </mxCell>
        <mxCell id="HWzIpppgRrNZJ8F4URVD-78" value="temperatura mÃ¡xima cama" style="ellipse;whiteSpace=wrap;html=1;align=center;" vertex="1" parent="1">
          <mxGeometry x="2740" y="-411" width="100" height="40" as="geometry" />
        </mxCell>
        <mxCell id="HWzIpppgRrNZJ8F4URVD-79" value="temperatura mÃ¡xima extrusor" style="ellipse;whiteSpace=wrap;html=1;align=center;" vertex="1" parent="1">
          <mxGeometry x="2740" y="-351" width="100" height="40" as="geometry" />
        </mxCell>
        <mxCell id="HWzIpppgRrNZJ8F4URVD-80" value="diÃ¡metro extrusor" style="ellipse;whiteSpace=wrap;html=1;align=center;" vertex="1" parent="1">
          <mxGeometry x="2740" y="-291" width="100" height="40" as="geometry" />
        </mxCell>
        <mxCell id="HWzIpppgRrNZJ8F4URVD-83" style="edgeStyle=orthogonalEdgeStyle;rounded=0;orthogonalLoop=1;jettySize=auto;html=1;exitX=1;exitY=0.5;exitDx=0;exitDy=0;entryX=0.5;entryY=1;entryDx=0;entryDy=0;" edge="1" parent="1" source="HWzIpppgRrNZJ8F4URVD-81" target="HWzIpppgRrNZJ8F4URVD-47">
          <mxGeometry relative="1" as="geometry" />
        </mxCell>
        <mxCell id="HWzIpppgRrNZJ8F4URVD-81" value="permite" style="shape=rhombus;perimeter=rhombusPerimeter;whiteSpace=wrap;html=1;align=center;" vertex="1" parent="1">
          <mxGeometry x="1780" y="330" width="120" height="60" as="geometry" />
        </mxCell>
        <mxCell id="HWzIpppgRrNZJ8F4URVD-125" style="edgeStyle=orthogonalEdgeStyle;rounded=0;orthogonalLoop=1;jettySize=auto;html=1;exitX=1;exitY=0.5;exitDx=0;exitDy=0;entryX=0;entryY=0.5;entryDx=0;entryDy=0;" edge="1" parent="1" source="HWzIpppgRrNZJ8F4URVD-84" target="HWzIpppgRrNZJ8F4URVD-28">
          <mxGeometry relative="1" as="geometry" />
        </mxCell>
        <mxCell id="HWzIpppgRrNZJ8F4URVD-84" value="se conforma de" style="shape=rhombus;perimeter=rhombusPerimeter;whiteSpace=wrap;html=1;align=center;" vertex="1" parent="1">
          <mxGeometry x="600" y="150" width="120" height="60" as="geometry" />
        </mxCell>
        <mxCell id="HWzIpppgRrNZJ8F4URVD-87" value="tiempo estimado de impresiÃ³n" style="ellipse;whiteSpace=wrap;html=1;align=center;" vertex="1" parent="1">
          <mxGeometry x="910" y="-211" width="100" height="40" as="geometry" />
        </mxCell>
        <mxCell id="HWzIpppgRrNZJ8F4URVD-88" value="archivo STL" style="ellipse;whiteSpace=wrap;html=1;align=center;" vertex="1" parent="1">
          <mxGeometry x="910" y="-271" width="100" height="40" as="geometry" />
        </mxCell>
        <mxCell id="HWzIpppgRrNZJ8F4URVD-89" value="id modelo" style="ellipse;whiteSpace=wrap;html=1;align=center;" vertex="1" parent="1">
          <mxGeometry x="910" y="-331" width="100" height="40" as="geometry" />
        </mxCell>
        <mxCell id="HWzIpppgRrNZJ8F4URVD-91" value="tiempo de impresiÃ³n" style="ellipse;whiteSpace=wrap;html=1;align=center;" vertex="1" parent="1">
          <mxGeometry x="1200" y="79" width="100" height="40" as="geometry" />
        </mxCell>
        <mxCell id="HWzIpppgRrNZJ8F4URVD-95" value="producto id" style="ellipse;whiteSpace=wrap;html=1;align=center;" vertex="1" parent="1">
          <mxGeometry x="350" y="-272" width="100" height="40" as="geometry" />
        </mxCell>
        <mxCell id="HWzIpppgRrNZJ8F4URVD-99" value="id pedido" style="ellipse;whiteSpace=wrap;html=1;align=center;fillColor=#dae8fc;strokeColor=#6c8ebf;" vertex="1" parent="1">
          <mxGeometry x="-150" y="228" width="100" height="40" as="geometry" />
        </mxCell>
        <mxCell id="HWzIpppgRrNZJ8F4URVD-100" value="fecha y hora&amp;nbsp;&lt;div&gt;de solicitud&lt;/div&gt;" style="ellipse;whiteSpace=wrap;html=1;align=center;fillColor=#dae8fc;strokeColor=#6c8ebf;" vertex="1" parent="1">
          <mxGeometry x="-150" y="278" width="100" height="40" as="geometry" />
        </mxCell>
        <mxCell id="HWzIpppgRrNZJ8F4URVD-101" value="estado&amp;nbsp;&lt;div&gt;del pedido&lt;/div&gt;" style="ellipse;whiteSpace=wrap;html=1;align=center;fillColor=#dae8fc;strokeColor=#6c8ebf;" vertex="1" parent="1">
          <mxGeometry x="-150" y="429" width="100" height="40" as="geometry" />
        </mxCell>
        <mxCell id="HWzIpppgRrNZJ8F4URVD-104" style="edgeStyle=orthogonalEdgeStyle;rounded=0;orthogonalLoop=1;jettySize=auto;html=1;exitX=0.5;exitY=1;exitDx=0;exitDy=0;entryX=0.5;entryY=0;entryDx=0;entryDy=0;" edge="1" parent="1" source="HWzIpppgRrNZJ8F4URVD-102" target="HWzIpppgRrNZJ8F4URVD-19">
          <mxGeometry relative="1" as="geometry" />
        </mxCell>
        <mxCell id="HWzIpppgRrNZJ8F4URVD-102" value="realiza" style="shape=rhombus;perimeter=rhombusPerimeter;whiteSpace=wrap;html=1;align=center;" vertex="1" parent="1">
          <mxGeometry x="-240" y="29" width="120" height="60" as="geometry" />
        </mxCell>
        <mxCell id="HWzIpppgRrNZJ8F4URVD-109" value="archivo STL" style="ellipse;whiteSpace=wrap;html=1;align=center;" vertex="1" parent="1">
          <mxGeometry x="350" y="-66" width="100" height="40" as="geometry" />
        </mxCell>
        <mxCell id="HWzIpppgRrNZJ8F4URVD-110" value="alto" style="ellipse;whiteSpace=wrap;html=1;align=center;" vertex="1" parent="1">
          <mxGeometry x="350" y="-11" width="100" height="40" as="geometry" />
        </mxCell>
        <mxCell id="HWzIpppgRrNZJ8F4URVD-111" value="ancho" style="ellipse;whiteSpace=wrap;html=1;align=center;" vertex="1" parent="1">
          <mxGeometry x="350" y="39" width="100" height="40" as="geometry" />
        </mxCell>
        <mxCell id="HWzIpppgRrNZJ8F4URVD-112" value="largo" style="ellipse;whiteSpace=wrap;html=1;align=center;" vertex="1" parent="1">
          <mxGeometry x="350" y="88" width="100" height="40" as="geometry" />
        </mxCell>
        <mxCell id="HWzIpppgRrNZJ8F4URVD-117" value="ImpresiÃ³n" style="text;html=1;align=center;verticalAlign=middle;resizable=0;points=[];autosize=1;strokeColor=none;fillColor=none;" vertex="1" parent="1">
          <mxGeometry x="1130" y="240" width="80" height="30" as="geometry" />
        </mxCell>
        <mxCell id="HWzIpppgRrNZJ8F4URVD-123" value="id usuario" style="ellipse;whiteSpace=wrap;html=1;align=center;" vertex="1" parent="1">
          <mxGeometry x="-370" y="-81" width="100" height="40" as="geometry" />
        </mxCell>
        <mxCell id="HWzIpppgRrNZJ8F4URVD-130" value="cantidad de filamento utilizado" style="ellipse;whiteSpace=wrap;html=1;align=center;" vertex="1" parent="1">
          <mxGeometry x="1200" y="29" width="100" height="40" as="geometry" />
        </mxCell>
        <mxCell id="HWzIpppgRrNZJ8F4URVD-133" value="direcciÃ³n de entrega" style="ellipse;whiteSpace=wrap;html=1;align=center;fillColor=#dae8fc;strokeColor=#6c8ebf;" vertex="1" parent="1">
          <mxGeometry x="-150" y="479" width="100" height="40" as="geometry" />
        </mxCell>
        <mxCell id="HWzIpppgRrNZJ8F4URVD-135" value="precio" style="ellipse;whiteSpace=wrap;html=1;align=center;fillColor=#dae8fc;strokeColor=#6c8ebf;" vertex="1" parent="1">
          <mxGeometry x="-150" y="529" width="100" height="40" as="geometry" />
        </mxCell>
        <mxCell id="HWzIpppgRrNZJ8F4URVD-136" value="porcentaje de impuesto" style="ellipse;whiteSpace=wrap;html=1;align=center;fillColor=#dae8fc;strokeColor=#6c8ebf;" vertex="1" parent="1">
          <mxGeometry x="-150" y="580" width="100" height="40" as="geometry" />
        </mxCell>
        <mxCell id="HWzIpppgRrNZJ8F4URVD-137" value="precio final" style="ellipse;whiteSpace=wrap;html=1;align=center;fillColor=#dae8fc;strokeColor=#6c8ebf;" vertex="1" parent="1">
          <mxGeometry x="-150" y="629" width="100" height="40" as="geometry" />
        </mxCell>
        <mxCell id="HWzIpppgRrNZJ8F4URVD-138" value="fecha y hora&amp;nbsp;&lt;div&gt;de entrega&lt;/div&gt;" style="ellipse;whiteSpace=wrap;html=1;align=center;fillColor=#dae8fc;strokeColor=#6c8ebf;" vertex="1" parent="1">
          <mxGeometry x="-150" y="328" width="100" height="40" as="geometry" />
        </mxCell>
        <mxCell id="HWzIpppgRrNZJ8F4URVD-139" value="id del pago" style="ellipse;whiteSpace=wrap;html=1;align=center;fillColor=#dae8fc;strokeColor=#6c8ebf;" vertex="1" parent="1">
          <mxGeometry x="-150" y="680" width="100" height="40" as="geometry" />
        </mxCell>
        <mxCell id="HWzIpppgRrNZJ8F4URVD-140" value="fecha y hora&amp;nbsp;&lt;div&gt;del pago&lt;/div&gt;" style="ellipse;whiteSpace=wrap;html=1;align=center;fillColor=#dae8fc;strokeColor=#6c8ebf;" vertex="1" parent="1">
          <mxGeometry x="-150" y="378" width="100" height="40" as="geometry" />
        </mxCell>
      </root>
    </mxGraphModel>
  </diagram>
</mxfile>
